PathFileType	4	(X/Y/Z)	Patient4_TMGait_0pt3_03_left_06.trc.trc
DataRate	CameraRate	NumFrames	NumMarkers	Units	OrigDataRate	OrigDataStartFrame	OrigNumFrames
51.470588235294	51.470588235294	6	33	mm	51.470588235294	71	       141
Frame#	Time	Sacral			L.Shoulder			Chest			R.Shoulder			Neck			R.ASIS			L.ASIS			R.Thigh.Superior			R.Thigh.Lateral			R.Thigh.Inferior			R.Patella			L.Thigh.Superior			L.Thigh.Lateral			L.Thigh.Inferior			L.Patella			L.Shank.Superior			L.Shank.Lateral			L.Shank.Inferior			R.Shank.Superior			R.Shank.Lateral			R.Shank.Inferior			R.Heel			R.Midfoot.Superior			R.Midfoot.Lateral			R.Toe			L.Heel			L.Midfoot.Lateral			L.Midfoot.Superior			L.Toe			L.Elbow			L.Wrist			R.Elbow			R.Wrist			
		X1	Y1	Z1	X2	Y2	Z2	X3	Y3	Z3	X4	Y4	Z4	X5	Y5	Z5	X6	Y6	Z6	X7	Y7	Z7	X8	Y8	Z8	X9	Y9	Z9	X10	Y10	Z10	X11	Y11	Z11	X12	Y12	Z12	X13	Y13	Z13	X14	Y14	Z14	X15	Y15	Z15	X16	Y16	Z16	X17	Y17	Z17	X18	Y18	Z18	X19	Y19	Z19	X20	Y20	Z20	X21	Y21	Z21	X22	Y22	Z22	X23	Y23	Z23	X24	Y24	Z24	X25	Y25	Z25	X26	Y26	Z26	X27	Y27	Z27	X28	Y28	Z28	X29	Y29	Z29	X30	Y30	Z30	X31	Y31	Z31	X32	Y32	Z32	X33	Y33	Z33	

71	11.630000000000	743.912456315441	1018.091304398659	388.129678407902	985.116137781454	1437.229429510928	244.202223988462	1042.783911260472	1365.933155168879	423.746646016419	924.769356694146	1445.039309970842	573.522406522400	928.152580512939	1498.372729511666	396.709930553447	946.483868396136	948.824717338830	549.032655076860	983.015644786490	959.614177795926	276.462677095171	1016.671157920502	770.192738454414	523.976275193467	961.285255776541	651.797116681722	591.503581259240	1048.838739757970	608.015287030425	514.852775085910	1074.904781290967	522.711292809460	533.993116634789	992.088158865409	733.317336562645	322.041336715482	897.269816645929	624.955886541637	251.119956302333	956.075847911960	542.258232507813	331.986401991182	944.628988373112	473.225487722908	342.039744294925	906.689723084650	405.618224906462	331.496248842059	806.720191736554	303.118162091578	276.316198115934	830.964538297673	189.025218197365	355.046099190866	1049.026538063172	433.929396736679	545.332754905406	982.695160990262	329.072434011774	612.798140568381	1040.238384031481	233.543064692840	562.104333296247	924.810047482303	53.893119549979	540.153351843257	1093.617672081204	115.172168401384	573.402883000364	1012.523737911835	43.294184143044	608.151750472047	1217.550598895281	72.577748337025	592.249368878909	680.103803275321	45.396536322822	391.928384346787	758.066681258143	38.398668194398	316.544934197835	842.750307913613	96.424298855693	346.625309154763	969.535709821402	38.715568373317	323.833184927149	1098.287835268961	1129.016720871513	94.220518089447	1350.775180134111	1083.416612213538	136.305471474185	750.966920011197	1138.871804764575	657.424038250542	712.676507659691	882.167249487675	680.845958208822	
72	11.649428571429	744.361782502623	1016.512592945435	390.008012748581	984.953060349915	1436.049378802241	246.784064623744	1041.676930697375	1365.472668299925	426.780686080578	922.729154798996	1444.915786873058	575.672350610651	926.891395244326	1497.386084309422	398.758514422220	946.163463117514	947.608344893620	551.988480477876	983.996681122536	958.649897735188	279.549932491019	1015.172538901793	767.626475863899	528.248388900406	957.737013503900	649.212644525385	594.519630610930	1045.845434995444	605.634638642018	518.559921179965	1070.902666299608	522.113264619974	536.178772148335	990.415132206728	731.693565507181	324.477553415554	894.475433732318	624.563009411880	252.186930227169	951.676778717639	540.912228949859	332.843720183082	939.171194319821	472.173312011785	342.609372332719	901.442807508875	404.925250867380	331.945181929990	801.152257269929	302.747775021393	276.511523500211	825.065897652427	188.509544964286	355.207992376825	1048.733581051636	432.794692188777	547.335307753739	986.912839794163	325.441642359078	615.730617686223	1046.897635830402	231.798335551490	563.776255827682	936.100672284742	50.293886574822	543.194123333843	1104.805981679831	113.360760983561	573.791896053207	1025.157384484473	40.189491252508	609.353970234362	1229.528561264774	71.752323374949	589.664965846314	674.107086183756	44.795547002282	391.961553534326	752.081040848456	38.043487930724	316.567374157187	836.644904264692	96.248729173986	346.725453060495	963.584802645220	38.755155190910	323.916332576701	1103.505368591730	1130.686342375220	97.023353037934	1357.516284736488	1097.699457013057	139.635017837715	746.243153867226	1140.756539720701	658.058444151992	708.019532101494	883.762955283193	681.504482256918	
73	11.668857142857	744.935996826188	1014.496860613613	392.493689832333	984.372308893623	1434.609816079529	249.662583512900	1040.601360733273	1364.698544196876	429.944091317014	920.994954717499	1444.291653090370	578.261908769294	925.567514770106	1496.063004059057	401.231260074585	946.362669996595	945.964040107191	554.970573484767	984.921906032766	957.432726061793	282.656610702124	1014.433846364884	764.725079261474	532.123717927232	955.086341114299	646.243341639112	597.086963129014	1043.636326567528	602.980501014456	521.612728440370	1067.365270122883	520.689161048798	537.707948753568	989.141677526495	729.924287035238	326.650436868652	891.938894209737	623.956106171912	253.425110903284	947.846938311675	539.407395591837	333.650062378668	934.365541842671	470.907680354298	343.196522851757	896.698487097891	404.002256633879	332.471772520778	795.851986091674	302.340181317343	276.815514913296	819.312896541949	187.890320721537	355.413626977504	1048.072729286008	430.929425315478	548.755458342996	989.682341894364	322.043171720323	617.954156703614	1050.887631410134	229.795233936249	564.742970695521	942.807146326888	47.991843577929	545.494385450486	1111.851626160010	111.401224188088	573.682789598538	1032.826074000375	38.173526200920	610.246748370741	1236.638803364399	69.627025141699	587.285712551429	668.111016842548	44.196264880201	392.025681440821	746.089728453583	37.701037540481	316.603211979756	830.533676831541	96.070606871058	346.848459255783	957.627003684088	38.787232513647	323.998282025195	1108.093920431647	1131.941456337338	100.207423205785	1363.039377288375	1110.945069408323	143.050653318877	743.201591578387	1141.337954294944	659.415054246783	705.713202592971	883.941396521716	682.877463800653	
74	11.688285714286	745.630784258317	1012.242845293739	395.538238411104	983.458601681610	1433.058390949165	252.847633221390	1039.606865698955	1363.741086832950	433.266694084872	919.577944917840	1443.305348495528	581.294133428675	924.233098746913	1494.550863334634	404.142948471504	947.049058545331	944.068867929592	557.997451039924	985.812704486183	956.103968426904	285.798955098394	1014.448020356993	761.690764092770	535.505026900545	953.389295978007	643.111559784912	599.163460222634	1042.220053636158	600.243573782848	523.938440970389	1064.419236468428	518.633601807578	538.562394860442	988.251450422439	728.104448490090	328.585674636169	889.619307671054	623.251120319248	254.859525236538	944.531196116018	537.847314429544	334.446966406151	930.162189971217	469.537810362682	343.838798823834	892.406149061466	402.961797070159	333.094250234534	790.794803892337	301.999743515603	277.243828128275	813.716014160946	187.263311356249	355.657841096224	1047.174005202069	428.495701857648	549.561216208572	991.160746331155	318.863504453536	619.450898752003	1052.476696141650	227.503013716795	564.968516158250	945.322833412781	46.579339779573	547.061197539840	1115.077293244578	109.301999262745	573.026906634811	1035.992170290413	37.009641061521	610.843473259527	1239.429314356346	66.503666932975	585.098204654206	662.136166926835	43.711520758982	392.105927312239	740.110914447372	37.433487107077	316.646099662139	824.456591524850	95.923172484674	346.975194067452	951.672172100033	38.801670447611	324.071168221409	1111.939500365347	1132.828506887332	103.742646992922	1367.328786793654	1123.049005977450	146.513048537915	741.767286090223	1140.764913398019	661.552588268905	705.596583112425	882.892277456503	685.018955445089	
75	11.707714285714	746.437451506221	1009.967853732035	399.075292228333	982.318328906532	1431.548676567169	256.339426940088	1038.746276599566	1362.738253394033	436.770923130615	918.495754621425	1442.118266354804	584.754373405585	922.948022454684	1493.008750653624	407.489650891210	948.165227528188	942.115129700936	561.096934097379	986.683018967355	954.810352580078	289.001078547366	1015.142366346556	758.724942174191	538.345514467461	952.630479731472	640.048478360497	600.775948153817	1041.531746277735	597.602572883246	525.538267048102	1062.126472448015	516.171335342057	538.798614638218	987.690127894554	726.337839767660	330.340212823800	887.462965855947	622.575273942591	256.506364635305	941.643689186374	536.345373048823	335.280135993232	926.477983146431	468.182375679844	344.566672756975	888.491048347623	401.928919637787	333.823541631085	785.940863283312	301.833709836377	277.810331080430	808.280834605902	186.729997095205	355.933931433386	1046.148470658014	425.702552215283	549.796775415554	991.563397887281	315.922429926808	620.282301580424	1052.049466448225	224.975811006756	564.507989955445	944.298447749640	45.714189335997	547.968430724839	1115.004992816137	107.144807066794	571.858081264167	1035.381616662186	36.477956259435	611.178592025935	1238.649475864200	62.806822776599	583.095572119870	656.204784413104	43.454164185752	392.190779472577	734.164176210336	37.302606783358	316.692187403501	818.456147147649	95.840161900122	347.086658911341	945.731513812682	38.789807025283	324.127188252293	1114.954709745478	1133.405959262452	107.585143845368	1370.401862254477	1133.918696101877	149.982822395894	741.830844700511	1139.252328974551	664.491845665209	707.487211588266	880.872572720372	687.967803418391	
76	11.727142857143	747.341695326075	1007.882039966538	403.028058932900	981.067415092971	1430.224458449207	260.126786547040	1038.068932199912	1361.820295298101	440.467396193647	917.769479252563	1440.896226212927	588.611433139176	921.773254404802	1491.589661964713	411.248287012010	949.635570248776	940.286945827540	564.299090362849	987.535399937097	953.687756404119	292.287259427242	1016.391953114637	756.012675958543	540.658591293458	952.726443814163	637.269822655605	602.019989057029	1041.449184883329	595.212156697208	526.497026804897	1060.484007021093	513.536720003198	538.553606600114	987.369380296779	724.726368812199	331.992053313003	885.410920999794	622.051165013345	258.369041084714	939.083029298573	535.011099479452	336.190835927419	923.212430897731	466.954248919840	345.396525249752	884.867227291687	401.025910843975	334.659033931220	781.241845614885	301.939584345416	278.522997481914	803.008364791882	186.384830026870	356.231455683023	1045.077492334729	422.780853334399	549.588618465792	991.121804855252	313.267521104600	620.583577236267	1050.050410085459	222.335422810928	563.510293196383	940.537403546496	45.146549492381	548.336155649443	1112.284221191104	105.050267294380	570.301383904085	1031.864437102566	36.379797778077	611.304927075962	1235.149002082211	58.989575379937	581.303396080729	650.338021669305	43.523564256618	392.272072131432	728.268284035423	37.361240359837	316.739511800146	812.572719985853	95.851049146256	347.164551902564	939.816714890046	38.746165448921	324.159519141522	1117.087223617259	1133.739655610179	111.678738483293	1372.314101046861	1143.473872217105	153.423189375770	743.245055272656	1137.060613700907	668.214794551926	711.181474369412	878.181746077809	691.742473964251	
